<svg id="Capa_1" data-name="Capa 1" xmlns="http://www.w3.org/2000/svg" viewBox="0 0 91.21 69.65"><defs><style>.cls-1{fill:#4d4e50;}</style></defs><path class="cls-1" d="M72.26,28.78H70.64C69.32,25.92,65.35,18.05,60.5,15.5A32.49,32.49,0,0,0,45.36,12c-5.94.13-13.79,1.82-17.3,4.82-2.76,2.35-6.34,8.81-7.51,12H19C18.81,29,6.69,31.3,3.13,34.92c-3.78,3.85-4.29,14.15-.69,14.15H13.85c0,.23,0,.46,0,.7a7.88,7.88,0,0,0,15.76,0c0-.24,0-.47,0-.7H62.16c0,.23,0,.46,0,.7a7.88,7.88,0,1,0,15.76,0c0-.24,0-.47,0-.7H88.77c3.6,0,3.09-10.3-.69-14.15C84.52,31.3,72.4,29,72.26,28.78Zm-30.19,0H27.81c1.29-2.51,3.33-5.86,4.56-6.9s5.29-2.44,9.7-3Zm10.61,0h-4v-10a24.92,24.92,0,0,1,8.7,2.6c1.73.91,4,4.21,5.79,7.4Z"/></svg>