<?xml version="1.0" encoding="utf-8"?>
<!-- Generator: Adobe Illustrator 25.2.1, SVG Export Plug-In . SVG Version: 6.00 Build 0)  -->
<svg version="1.1" id="Capa_1" xmlns="http://www.w3.org/2000/svg" xmlns:xlink="http://www.w3.org/1999/xlink" x="0px" y="0px"
	 viewBox="0 0 91.2 69.7" style="enable-background:new 0 0 91.2 69.7;" xml:space="preserve">
<style type="text/css">
	.st0{fill:#3E8942;}
	.st1{fill:#0D205A;}
</style>
<g>
	<g>
		<path class="st1" d="M16,54.1c3.7-1.6,7.4-3.2,11.1-4.8c2.1-0.9,4.2-1.9,6.4-2.8c2.8,5.2,5.5,10.2,8.5,15.7
			c0.4-2.3,0.7-4.2,1.1-6.1c0.1-0.8,0.3-1.7,0.4-2.5c0.4-2.3,0.4-2.3,2.8-2.3c0.3,0,0.6,0,1,0.1c0.6,3.6,1.2,7.2,1.9,11.1
			c3-5.5,5.8-10.8,8.6-16c5.9,2.6,11.7,5.1,17.5,7.6c0,5.4,0,10.8,0,16.2c-19.7,0-39.5,0-59.2,0C16,64.9,16,59.5,16,54.1z
			 M35.5,61.9c-2-0.4-3.9-0.4-5.5,1c-0.9,0.8-1.8,0.8-2.7,0c-1.8-1.8-3.8-1-6.3-0.9c2.6,1.4,4.8,2.7,7.1,3.9
			c0.2,0.1,0.7,0.2,0.9,0.1C31.2,64.5,33.3,63.2,35.5,61.9z"/>
		<path class="st1" d="M50.4,1.4c2.5,0.3,5,0.4,7.5,0.9c3.5,0.7,7,1.5,10.5,2.3c0.4,0.1,0.8,0.3,1.3,0.6c-1.3,2-2.5,3.9-3.8,5.8
			c-0.8,1.1-1.1,2.3-1.1,3.7c0.2,4.2,0.1,4.2-3.8,5.6c-11,4.1-21.8,3-32.4-1.4c-0.4-0.2-0.6-0.8-0.9-1.2c0,0,0-0.1,0-0.1
			c0.6-4.2-1.1-7.5-3.7-10.6c-0.4-0.5-0.8-1.2-1.4-2.1C26,4,29.1,3.1,32.2,2.6c3.1-0.6,6.3-0.8,9.4-1.2C44.6,1.4,47.5,1.4,50.4,1.4z
			 M32.4,6.2c0,0.1,0,0.2-0.1,0.4c0.2,0.1,0.5,0.2,0.7,0.3C36,7.6,39,8.5,42,9.2c0.9,0.2,1.3,0.6,1.6,1.5c0.5,1.5,1.6,2.3,3.2,2.4
			c1.5,0.1,3-0.5,3.3-1.9c0.5-1.9,1.8-2.1,3.3-2.5c2.2-0.7,4.3-1.3,6.5-2c0.3-0.1,0.6-0.2,1-0.4c0-0.2-0.1-0.3-0.1-0.5
			c-3.3,0.4-6.6,0.9-9.9,1.2c-0.4,0-1-0.1-1.3-0.4c-1.2-0.9-2.7-1.5-3.9-0.5c-1.6,1.2-2.9,0.9-4.4,0.3c-0.4-0.1-0.8-0.2-1.3-0.2
			C37.4,6.2,34.9,6.2,32.4,6.2z"/>
		<path class="st1" d="M28,20.2c12.2,5.1,24.3,5.8,36.4,0c1.5,5.9-1.6,13.8-7,17.9c-5.9,4.5-14,5-20.3,1.4
			C30.4,35.6,26.9,28.4,28,20.2z"/>
		<path class="st1" d="M40.9,43.4c3.2,0,6.1,0,9.3,0c-0.9,2.3-1.7,4.6-2.8,6.8c-0.2,0.4-1.3,0.4-2,0.5c-1.2,0.2-1.8-0.3-2.2-1.4
			C42.6,47.3,41.8,45.4,40.9,43.4z"/>
	</g>
</g>
</svg>
