<svg id="Capa_1" data-name="Capa 1" xmlns="http://www.w3.org/2000/svg" viewBox="0 0 91.21 69.65"><defs><style>.cls-1{fill:#4d4e50;}</style></defs><path class="cls-1" d="M60.69,37.2l-.53.48c-.19.15-.37.31-.57.46q-.59.48-1.2.9L49.88,56.52,48.19,46.46l2.51-4.05-.92.19a21.32,21.32,0,0,1-2.42.28c-.45,0-.9,0-1.36,0a21.78,21.78,0,0,1-5.07-.6l2.56,4.13L41.89,56.7,32.47,38.19c-.44-.35-.86-.71-1.26-1.09l-.18.15c-12.61,10.91-12.44,30-12.42,30.81v.68h54l0-.72C71.68,46,62.86,38.67,60.69,37.2Z"/><path class="cls-1" d="M46,.92A20.26,20.26,0,1,0,66.27,21.18,20.28,20.28,0,0,0,46,.92Z"/></svg>